<svg width="20" height="27" viewBox="0 0 20 27" fill="none" xmlns="http://www.w3.org/2000/svg">
<path d="M19.1844 6.46249C20.5366 9.9174 19.8233 13.7035 18.2869 16.9441C16.3883 20.9476 13.3491 24.1391 10.1193 27C8.38342 25.852 4.53506 21.4695 3.88165 20.5473C2.62541 18.7751 1.52554 16.8617 0.837253 14.7789C0.148384 12.6966 -0.1167 10.4321 0.297784 8.27169C0.895967 5.14859 2.96781 2.37061 5.72503 0.993738C8.48225 -0.383139 11.8592 -0.325618 14.5716 1.1439C16.6504 2.2701 18.3014 4.20524 19.1844 6.46249ZM13.5822 11.1671C13.9234 9.46268 13.1654 7.55419 11.4685 6.7943C10.3407 6.28933 8.97056 6.42374 7.95324 7.13943C6.93592 7.85451 6.30344 9.12845 6.33135 10.4066C6.36332 11.8659 7.20333 13.0799 8.39563 13.7762C9.61118 14.4343 11.1813 14.2412 12.2609 13.3735C12.9805 12.7953 13.4142 12.0057 13.5822 11.1671Z" fill="#D91F26"/>
</svg>
