<svg width="23" height="23" viewBox="0 0 23 23" fill="none" xmlns="http://www.w3.org/2000/svg">
<path d="M0.99999 10.9763C1.09421 8.89462 1.09421 6.76559 1.23554 4.68387C1.37686 2.12903 3.21412 0.236559 5.80513 0.141935C9.14988 0 12.5417 0 15.9336 0C17.0171 0 18.1477 0.0473118 19.1841 0.283871C21.3983 0.756989 22.8116 2.4129 22.8587 4.68387C22.9529 8.04301 23 11.4022 23 14.8086C23 15.9441 22.9529 17.0796 22.7173 18.1677C22.2462 20.3914 20.5974 21.8108 18.3362 21.9054C14.9443 22.0473 11.5525 22.0473 8.16059 22.0473C7.07708 22.0473 5.94646 21.9527 4.86295 21.7634C2.69592 21.2903 1.32975 19.6344 1.18843 17.4108C1.0471 15.2817 1.0471 13.2 0.952881 11.071M12.0707 4.11613C8.25481 4.11613 5.23982 7.1914 5.23982 10.9763C5.23982 14.7613 8.25481 17.8366 12.0707 17.8839C15.8865 17.8839 18.9486 14.8086 18.9486 10.9763C18.9486 7.14409 15.8865 4.11613 12.0707 4.11613ZM19.2313 5.39355C20.0792 5.39355 20.833 4.68387 20.833 3.83226C20.833 2.93333 20.1263 2.17634 19.2313 2.17634C18.3833 2.17634 17.6295 2.88602 17.6295 3.78495C17.6295 4.63656 18.3362 5.39355 19.2313 5.39355Z" fill="#D91F26"/>
<path d="M12.0707 6.52905C14.5675 6.52905 16.546 8.51615 16.4989 11.071C16.4989 13.5312 14.5203 15.5183 12.0236 15.5183C9.52677 15.5183 7.54819 13.5312 7.54819 10.9764C7.54819 8.51615 9.52677 6.52905 12.0236 6.52905" fill="#D91F26"/>
</svg>
